# xmcd
#
# Track frame offsets:
#	150
#	14707
#	30495
#	46357
#	61257
#	82330
#
# Disc length: 1300 seconds
#
# Revision: 1
# Processed by: cddbd v1.4PL0 Copyright (c) Steve Scherf et al.
# Submitted via: audiograbber 1.81.03
#
DISCID=4b051206
DTITLE=Joe Ely - Live at the Cambridge Folk Festival
DYEAR=1990
DGENRE=Folk
TTITLE0=I Had My Hopes Up High
TTITLE1=She Never Spoke Spanish To Me
TTITLE2=Me And Billy The Kid
TTITLE3=Rich Man, Poor Boy
TTITLE4=Boxcars
TTITLE5=My Eyes Got Lucky
EXTD=
EXTT0=
EXTT1=
EXTT2=
EXTT3=
EXTT4=
EXTT5=
PLAYORDER=
